<?xml version="1.0" encoding="utf-8"?>
<!-- Generator: Adobe Illustrator 21.0.0, SVG Export Plug-In . SVG Version: 6.00 Build 0)  -->
<svg version="1.1" xmlns="http://www.w3.org/2000/svg" xmlns:xlink="http://www.w3.org/1999/xlink" x="0px" y="0px"
	 viewBox="0 0 200 200" style="enable-background:new 0 0 200 200;" xml:space="preserve">
<style type="text/css">
	.st0{fill:#FFFFFF;}
	.st1{fill:#266F90;}
	.st2{fill:#A0CCC3;}
	.st3{fill:#ABC713;}
	.st4{fill:#459E48;}
	.st5{fill:#2DB5C6;}
	.st6{fill:#606060;}
	.st7{font-family:'LeelawadeeUI-Semilight';}
	.st8{font-size:26.7686px;}
</style>
<g id="Layer_3">
	<rect class="st0" width="200" height="200"/>
</g>
<g id="Layer_1">
	<path class="st1" d="M128.9,119.5c-23.9,16-27.5,42.4-27.5,42.4s20.5,8.3,47.8-0.6s14.2-32.7,14.2-32.7S152.7,103.5,128.9,119.5z"
		/>
	<path class="st2" d="M64.9,83.8c10.8-26.6-1-50.5-1-50.5S42.2,38,24.7,60.7s6.6,35.1,6.6,35.1S54.1,110.4,64.9,83.8z"/>
	<path class="st3" d="M136.1,78.1c10.2,26.8,35.1,36.3,35.1,36.3s12.7-18.1,10.1-46.7s-28.7-21.2-28.7-21.2S125.9,51.2,136.1,78.1z"
		/>
	<path class="st4" d="M97.2,51.1c28.7,2,47.7-16.6,47.7-16.6s-11.1-19.2-38.2-28.8S75.4,22.9,75.4,22.9S68.5,49.1,97.2,51.1z"/>
	<path class="st5" d="M34.7,111.4c21.7,0,41.5-0.4,56.2,18.2c5.2,12.4,1,24.6-10.7,31.2c-12.1,6.9-24.4,4.4-31.6-6.1
		C40.5,143,34.7,126.7,34.7,111.4z"/>
	<path class="st4" d="M127.6,27c4,3.6,8,7.1,12.7,11.3"/>
</g>
<g id="Layer_2">
	<text transform="matrix(1 0 0 1 11.7304 192.9949)" class="st6 st7 st8">Al Resala Group</text>
</g>
</svg>
