<?xml version="1.0" encoding="utf-8"?>
<!-- Generator: Adobe Illustrator 21.0.0, SVG Export Plug-In . SVG Version: 6.00 Build 0)  -->
<svg version="1.1" id="Layer_1" xmlns="http://www.w3.org/2000/svg" xmlns:xlink="http://www.w3.org/1999/xlink" x="0px" y="0px"
	 viewBox="0 0 244 241" style="enable-background:new 0 0 244 241;" xml:space="preserve">
<style type="text/css">
	.st0{fill:#FEFEFE;}
	.st1{fill:#87AE2A;}
</style>
<g>
	<path class="st0" d="M163.5,241c-27.5,0-55.1,0-82.6,0c-10.6-14.2-14.8-31.3-21-47.4C42.8,149.3,24.8,105.3,8.3,60.7
		C6.5,55.9,4,51.3,4.4,45.9c0.1-2.6-0.9-6,1-7.9c23.1-9,50.1-6.3,74-10.4c22.1-3.8,44.4-4.2,66.8-4c20.7,0.2,38.9,6.9,55.3,18.9
		c20.7,15.2,18.6,37.1-4.7,48.2c-11.1,5.3-23.3,7-35.2,9.6c-5,1.1-10,2-14.8,3.7c-7.2,2.6-15.5,4.9-15.4,14.6
		c0.1,8.8,7,13.3,14,16.6c10.5,5,21.3,5.7,32.7,2.9c20.1-5.1,44.1-12.4,60.6-14c2-0.1,2.3-0.2,4.3,0.3c0,15.4,0.1,33.1,0.1,48.6
		c-1.2,1.1-2.4,2.1-3.7,3c-41.1,14.7-82.3,24.2-124.6,3.9c-10.3-4.9-19.8-10.6-27.9-18.5C58.2,133.7,63.4,99.2,99,80.8
		c15.7-8.1,33.2-9.7,50.1-13.2c5.7-1.2,14.9-0.5,15.2-7.5c0.4-8.8-9.3-10.1-16-11.2c-19.5-3.1-38.2,5.3-57.5,5.7c-1,0-2,0.4-3,0.5
		c-24.4,4.1-24.5,4.2-13.9,26c3.2,6.5,3.7,12.3,0.7,19.1c-14.5,33.3-7.4,55.3,23.6,73.7c8.3,5,17.1,9.2,26.1,12.8
		C148.7,196.5,157.1,218.1,163.5,241z"/>
	<g>
		<path class="st1" d="M199.9,183.5c-30.1,6-59.6,3.5-87.7-8.9c-25.9-11.5-42.3-34.5-39.9-54.8C74.5,100,94.4,83,122.5,77
			c5.5-1.2,11-2,16.5-3.1c8-1.6,15.9-3.2,23.9-5c4.7-1.1,8.8-3.7,9.5-8.8c0.7-5.4-3.5-8.2-7.6-10.4c-7.8-4.2-16.3-6.5-25-5.4
			c-23.2,2.9-46.3,6.1-69.4,9.8c-10.9,1.7-13.7,7.6-6.7,17.1c3,4.1,5,8.9,8,13.1c3.7,5.3,3.6,9.1-0.5,14.8
			c-13.9,19.3-12.6,40.6,2.5,59.3c13.7,16.9,32.1,26.5,52.3,33c6,1.9,11.2,3.8,14.5,9.9c7.4,13.4,15.4,26.5,23.1,39.8
			c25.5,0,55,0,80.5,0c0-22.4-0.1-45.4,0-67.9C230.8,176.9,213.8,180.8,199.9,183.5z"/>
		<path class="st1" d="M4.3,0H0c0,0,0,1.8,0,3.2C0.1,81.5,0.1,159.7,0,238c0,0.9,0,3,0,3h4.3c25.5,0,52.9,0,78.5,0
			c0,0-3.4-7.9-4.9-11.7C54.2,168.4,30.5,107.6,6.8,46.7l-2-6.3c36.8-4.4,76.4-9.2,113.3-13.1c21.4-2.3,42.9-1.6,62.9,7.7
			c14.1,6.6,32.1,12.8,31.2,31.7c-1,19.8-20.2,21.7-35.2,25.8c-12.3,3.3-24.8,5.6-37,9.2c-7.5,2.3-14.1,7.1-14.8,15.9
			c-0.6,7.9,4.3,13.5,10.5,17.7c11.9,8,25,11.4,39.2,7.7c21.7-5.5,43.2-11.5,64.8-17.2l4.3-1.1c0-0.5,0-0.5,0-1.5
			c0-39.6,0-76.1,0-115.7c0-3.2,0-5.9,0-7.5h-4.1H5.4"/>
	</g>
</g>
</svg>
