<?xml version="1.0" encoding="utf-8"?>
<!-- Generator: Adobe Illustrator 21.0.0, SVG Export Plug-In . SVG Version: 6.00 Build 0)  -->
<svg version="1.1" id="Layer_1" xmlns="http://www.w3.org/2000/svg" xmlns:xlink="http://www.w3.org/1999/xlink" x="0px" y="0px"
	 viewBox="0 0 200 200" style="enable-background:new 0 0 200 200;" xml:space="preserve">
<style type="text/css">
	.st0{fill:#010101;}
	.st1{fill:#161616;}
	.st2{fill:#F2F2F2;}
	.st3{fill:#F8F8F8;}
	.st4{fill:#F4F4F4;}
	.st5{fill:#FBFBFB;}
	.st6{fill:#FCFCFC;}
	.st7{fill:#F6F6F6;}
	.st8{fill:#F9F9F9;}
	.st9{fill:#EC1B25;}
	.st10{fill:#CE4758;}
</style>
<g>
	<path class="st0" d="M100.2-0.2C44.7-0.3,0.1,44.4,0,100.1c-0.1,55,44.8,99.8,99.9,99.9c55,0.1,99.9-44.6,100.4-98.9
		C200.8,46.2,156.4-0.1,100.2-0.2z M100.3,196.2c-53,0.2-96.3-43-96.4-96.3C3.8,47.1,46.9,3.8,99.7,3.6
		c53.6-0.1,96.8,42.7,96.9,96.1C196.7,153,153.8,196.1,100.3,196.2z"/>
	<g>
		<g>
			<path class="st1" d="M164.3,60c-0.8-1.2-1.3-0.2-1.9,0.1c-0.9,0.5,0,1.1,0.2,1.4c3.4,5.4,5.7,11.3,7.6,17.3
				c0.8,2.5,1.4,4.9,1.9,7.5c0.2,0.9,0.4,1.4,1.5,1.2c4.7-1,9.5-1.9,14.2-2.8c1.1-0.2,1.3-0.7,1.1-1.7c-0.2-1.2-0.9-1-1.7-0.9
				c-4,0.8-7.9,1.6-11.9,2.3c-0.7,0.1-1.5,0.5-1.5-0.7c0-1-1.2-2.2,0.7-2.7c1.6-0.5,3.3-1.1,4.9-1.7c1.4-0.5,2.3-1.5,1.8-3.1
				c-0.8-2.5-1.7-5-2.5-7.5c-0.2-0.5-0.4-0.8-1-0.6c-0.8,0.2-0.6,0.7-0.4,1.2c0.4,1.2,0.9,2.4,1.3,3.5c1,2.9,0.5,3.8-2.3,4.8
				c-0.8,0.3-1.7,0.5-2.4,0.9c-0.9,0.4-1.2,0.2-1.6-0.7c-0.4-1,0-1.2,0.9-1.5c1-0.3,1.9-0.7,2.8-1c1-0.4,1.4-1.1,1.3-2.2
				c-0.6-4.9-3-6-7.1-3.2c-0.1,0.1-0.2,0.1-0.4,0.2c-1.4-2.6-1.4-2.6,1.1-4.1c3.1-1.8,6.2-3.5,9.3-5.2c0.7-0.4,1.4-0.6,0.8-1.7
				c-0.6-1.1-1.1-1.3-2.1-0.6c-0.5,0.4-1.1,0.7-1.7,1c-3,1.7-6,3.3-9,5c-1.3,0.8-1.4-0.3-1.8-0.9c-0.3-0.5-0.6-0.7,0.3-1.1
				c3.9-1.6,7.4-4,11.2-6c0.9-0.5,1.3-0.8,0.6-1.9c-0.6-1.2-1.1-0.9-2-0.4c-3.3,1.9-6.7,3.8-10,5.6C165.8,60.3,165,61.1,164.3,60z
				 M27.8,64.6c0.8,0.5,1.6,0.9,2.4,1.4c1.3,0.7,2.6,2,3.8,1.9c1.3-0.1,1.5-2.2,2.3-3.4c0.3-0.4,0.4-1,1-0.7
				c0.6,0.3,0.5,0.9,0.2,1.4c-0.5,0.9-1,1.9-1.5,2.8c-0.3,0.5-0.6,0.9,0.1,1.3c0.7,0.4,1,0.2,1.4-0.5c0.7-1.4,1.5-2.8,2.2-4.2
				c0.5-0.9,0.6-2-0.3-2.5c-1.7-1-0.9-1.9-0.1-2.8c3.7-4.5,7-9.3,11.5-13.1c0.9-0.8,1-1.2,0.1-2.2c-3.3-3.4-6.5-6.9-9.8-10.4
				c-0.6-0.7-1-1.1-1.8-0.2c-0.7,0.7-1,1.1-0.1,2c2.8,2.8,5.4,5.8,8.1,8.7c0.4,0.5,1.4,1,0.3,1.7c-0.8,0.5-1.2,2.2-2.6,0.8
				c-1-0.9-2.1-1.9-3.2-2.6c-0.7-0.4-1.2-2.2-2.6-0.5c-1.3,1.6,0.3,1.8,0.9,2.4c1.1,1,2.2,1.9,3.4,2.7c0.8,0.6,0.7,1,0.2,1.7
				c-0.6,0.8-1,0.5-1.6,0c-1.4-1.1-2.8-2.2-4.2-3.4c-0.9-0.8-1.3-0.4-1.9,0.3c-0.6,0.7-0.7,1.1,0.2,1.7c1.4,1,2.8,2.2,4.2,3.3
				c0.7,0.5,0.9,0.9,0.3,1.7c-0.6,0.7-1,1-1.8,0.3c-1.3-1.2-2.7-2.1-4-3.3c-0.7-0.6-1.2-0.7-1.9,0.2c-0.6,0.8-0.7,1.2,0.2,1.9
				c1.3,1,2.5,2.2,3.9,3c1.4,0.9,0.8,1.6,0.2,2.5c-0.6,0.9-1,1.6-2.2,0.7c-1.4-1-3-1.7-4.5-2.5c-0.4-0.2-0.8-0.7-1.2-0.1
				c-1,1.8-2.1,3.5-2.8,5.4C26.4,63.3,26.9,64.1,27.8,64.6z M118.9,30.9c1.1-1.7,2.2-1.2,3.5-0.7c5.6,1.8,10.9,4.3,16,7.3
				c0.4,0.2,0.9,0.9,1.3,0.2c0.3-0.5,1.1-1,0.5-1.7c-0.7-0.8-0.2-1.4,0.2-2.1c0.6-1.3,1.6-2.4,1.7-3.6c0-1-0.2-1.6-0.7-2.1
				c-1.4-1.3-3.1-2-4.7-2.8c-0.9-0.5-1,0.5-1.2,0.9c-0.2,0.6-1.3,1.2-0.4,1.8c0.5,0.4,1.2,1.3,1.8,0.5c0.7-0.9,1.1-0.2,1.6,0.1
				c0.6,0.4,1,1,0.7,1.7c-0.5,1.3-1.2,2.5-1.7,3.8c-0.2,0.3-0.4,0.2-0.6,0.1c-2.1-1.1-4.6-1.9-6.1-3.6c-0.9-1.1,0.8-3.2,1.4-4.9
				c0.5-1.4,0.3-2.4-1.3-2.9c-1.3-0.4-2.6-0.9-3.9-1.5c-1-0.4-1.5-0.3-1.9,0.8c-0.5,1.6-1.2,3.2-1.7,4.9c-0.3,1-0.8,1-1.8,0.8
				c-0.9-0.3-1.4-0.5-1-1.6c0.5-1.6,0.8-3.3,1.3-5c0.3-0.9,0.3-1.4-0.9-1.6c-1.2-0.3-1.5,0-1.7,1.1c-0.5,2.4-1.2,4.7-1.8,7.1
				c-0.3,1.1-0.5,2.1-2,1.9c-0.6-0.1-0.7,0.4-0.9,0.8c-0.1,0.3-0.1,0.7,0.3,0.8C116.4,31.7,118,32.2,118.9,30.9z M108.3,11.8
				c0.1-0.9,0.4-1.8-1.2-1.9c-1.6-0.1-1.4,0.8-1.5,1.8c-0.2,3.9-0.5,7.8-0.8,11.7c-0.1,1-0.3,1.4-1.4,1.3c-1.5-0.1-3,0-4.6,0
				c-2.4,0-4.2-3-3.1-5.1c0.2-0.4,0.5-0.4,0.8-0.4c1.3-0.1,1.7,0.6,1.8,1.8c0,0.4-0.2,1,0.5,1c0.6,0,1.6,0.3,1.9-0.2
				c0.5-1.1,0.2-2.3-0.1-3.5c-0.2-0.9-0.9-1.4-1.8-1.4c-1.7,0-3.4,0.1-5.2,0.2c-0.4,0-0.8,0.2-0.7,0.7c0.4,2.2-0.4,4.7,1.1,6.9
				c-0.9,0.1-1.5,0.2-2.2,0.4c-1.5,0.4-2.1-0.2-2.3-1.6c-0.1-1.2-0.2-2.5-0.6-3.7c-0.2-0.7,0.5-2.1-1.4-1.9
				c-1.8,0.2-1.3,1.3-1.1,2.2c0.3,2.3,0.7,4.6,1.1,6.9c0.2,1,0.3,2-1.1,2.3c-0.7,0.1-0.5,0.7-0.5,1.1c0,0.5,0.3,0.8,0.8,0.7
				c1.5-0.2,3.1-0.4,3.4-2.2c0.2-1.5,1.1-1.6,2.1-1.7c4.4-0.3,8.9-0.7,13.3-0.1c1.2,0.2,1.6-0.2,1.7-1.4
				C107.6,21,107.9,16.4,108.3,11.8z M59.8,38.4c3-1.5,6-3,9-4.5c1.3-0.6,3.2-1,3.7-2.1c0.6-1.2-1.1-2.6-1.6-4
				c-0.2-0.6-1.3-1.3,0.1-1.9c1.1-0.5,1.9-0.5,2.5,0.7c0.5,1.1,1.2,2.2,1.7,3.4c0.3,0.7,0.7,0.8,1.4,0.6c2.4-0.7,4.8-1.3,7.2-2
				c0.7-0.2,1.1-0.4,0.8-1.3c-0.7-2.4-1.3-4.9-1.9-7.3c-0.2-0.9-0.5-1.3-1.6-1c-1,0.3-1.3,0.6-1,1.6c0.5,1.7,0.9,3.4,1.4,5.2
				c0.1,0.5,0.3,0.9-0.4,1.3c-2.8,1.3-3.8,1-5.2-1.8c-0.1-0.1-0.1-0.2-0.2-0.4c-1.1-2.2-2.2-2.6-4.5-1.5c-2.4,1.1-4.7,2.3-7.1,3.5
				c-0.7,0.4-1.2,0.6-0.7,1.6c0.5,0.9,0.9,0.9,1.7,0.4c0.5-0.3,1.1-0.5,1.6-0.7c1.7-0.6,1.8,1,2.5,1.9c0.8,1.2-0.2,1.3-0.9,1.7
				c-1.3,0.7-2.7,1.4-4.1,2c-4,2-4,2-6-2c-0.3-0.5-0.3-1.5-1.1-1.4c-0.9,0.2-1.3,1-1.3,2.3c0.3,1.7,1.6,3.3,2.3,5.2
				C58.4,38.8,58.9,38.8,59.8,38.4z M16.5,80.8c2.2,0.5,4.4,1,6.5,1.6c1.1,0.3,1.5-0.1,1.7-1.1c0.3-1.2,0.5-2.3,0.9-3.4
				c0.3-0.8,0.9-1,1.8-0.8c1,0.3,0.7,1,0.5,1.6c-0.3,1.4-0.7,2.7-1,4c-0.4,1.5-0.3,3.6-1.3,4.4c-1.1,0.9-2.9-0.5-4.5-0.7
				c-0.5,0-1.1-0.7-1.4,0c-0.3,0.6-0.1,1.3,0.3,1.9c0.5,0.7,1.2,1.1,2,1.3c1.3,0.4,2.7,0.6,4,1c1,0.3,1.4,0,1.6-1
				c0.8-3.7,1.7-7.3,2.6-11c0.8-3.3,0.8-3.3-2.5-4.1c-2.6-0.6-3.5,0-4.2,2.5c-0.7,2.7-0.7,2.7-3.6,2c-0.1,0-0.3,0-0.4-0.1
				c-0.5-0.3-1.7,0.1-1.3-1.2c0.2-1,0.7-1.6,1.8-1.2c0.5,0,1.2,0.4,1.2-0.5c0-0.6,0.8-1.2,0.2-1.9c-1.3-1.4-4.3-0.7-4.9,1.2
				c-0.4,1.3-0.6,2.7-1,4C15.3,80.3,15.6,80.6,16.5,80.8z M142.1,39.9c1.8,1.4,3.6,2.7,5.3,4.2c1,0.8,1.4,0.6,2.1-0.3
				c2.8-3.8,5.7-7.5,8.6-11.1c0.6-0.7,1-1.2,0-2c-1.2-1-1.5-0.2-2.1,0.5c-2.2,2.9-4.4,5.7-6.7,8.6c-1.5,2-1.5,2-3.2,0.4
				c2.8-3.6,5.6-7.3,8.4-10.9c0.4-0.6,0-0.8-0.2-1.2c-0.2-0.6,2.7,0.5,0.7-1.2c-0.5-0.4-0.2-0.8,0.2-0.9c0.5-0.2,0.4,0.2,0.4,0.5
				c0,0.5,0.3,0.7,0.8,0.4c0.4-0.3,0.6-0.8,0.1-1.2c-0.5-0.4-0.9-1.3-1.6-0.8c-0.8,0.5-1.9,1.1-1.3,2.4c-1.1-0.5-1.2,0.5-1.6,1
				c-2.3,2.9-4.5,5.9-6.8,8.7c-0.5,0.6-0.9,1.7-2,0.9c-1-0.7-1.1,0.3-1.5,0.6C140.9,39.2,141.7,39.5,142.1,39.9z M160.9,47
				c-1.7,1.3-3.3,2.6-5,3.9c-0.7,0.5-0.5,0.8-0.1,1.4c1.4,1.8,2.9,3.6,4.2,5.5c0.6,0.8,1,0.9,1.8,0.3c3.8-3.1,7.7-6.1,11.6-9
				c0.9-0.7,0.6-1.1,0.1-1.8c-0.6-0.9-1-0.9-1.8-0.2c-2.9,2.3-5.8,4.6-8.8,6.8c-2.1,1.6-2.1,1.6-3.7-0.5c-0.6-0.8-0.6-1.3,0.3-1.9
				c1.3-0.9,2.5-1.9,3.8-2.9c0.4-0.3,1.3-0.5,1-1.2c-0.3-0.6-1.1-0.6-1.8-0.7C162,46.5,161.4,46.6,160.9,47z M102.9,181.5
				c0.2-0.2,0.4-0.4,0.6-0.5c1.8-1,2.4-2.6,2-4.6c-0.4-1.9-1.8-2.8-3.6-3.2c-1.6-0.3-3.3-0.2-4.9,0c-0.9,0.1-1.1,0.5-1.1,1.3
				c0,4.4,0,8.9,0,13.3c0,0.8,0.1,1.2,1.1,1.2c1,0,1-0.5,1-1.3c0-1.5,0-3,0-4.6c0-0.7,0.2-1,1-1c2.2-0.1,3.3,0.5,3.9,2.7
				c0.2,0.8,0.5,1.6,0.6,2.5c0.2,1.5,1,2,2.6,1.4C104.9,186.4,105.5,183.3,102.9,181.5z M125.7,169.2c-0.2-0.8-0.5-1.3-1.5-0.9
				c-0.9,0.3-0.8,0.7-0.6,1.5c0.5,1.6,0.9,3.1,1.5,5c-3.3-1-5.6-0.1-6.7,2.4c-1.2,2.8,0.1,6.9,2.7,8.3c1,0.5,2.1,0.7,3.2,0.4
				c1.6-0.4,2.6-1.4,3.3-3c0.5,0.8,0.7,1.9,1.8,1.2c1.1-0.6,0.2-1.3,0-1.8C128.4,177.9,127,173.6,125.7,169.2z M86,176.2
				c-1.4-0.2-2.7,0-4.1,1.2c0.4-2,0.8-3.4,0.9-4.9c0.1-0.7,1.2-1.9-0.5-2.2c-1.7-0.3-1.3,1.2-1.4,1.9c-0.9,4.2-1.7,8.4-2.5,12.6
				c-0.1,0.6-0.8,1.2,0.2,1.7c1.1,0.5,1.3-0.5,1.6-1.1c2.1,2.6,4.7,3.2,6.9,1.7c2.5-1.6,3.6-5.9,2.2-8.5
				C88.6,177.2,87.5,176.4,86,176.2z M61.2,161.8c-0.8-0.6-1.3-0.5-2,0.1c-3.6,2.9-7.3,5.8-11,8.8c-0.3,0.3-1.2,0.5-0.6,1.1
				c0.5,0.5,1.1,1.2,2,0.4c0.8-0.8,1.7-1.4,2.6-2.1c0.3-0.3,0.6-0.8,1.2-0.4c1.4,0.9,3,1.6,4,2.8c0.7,0.8-0.2,2.3-0.6,3.4
				c-0.5,1.4-0.1,2.3,1.5,2.7c1.2-5,2.4-9.9,3.7-14.8C62.2,162.7,61.9,162.3,61.2,161.8z M19.8,126.5c2.3-0.2,3.7-1.6,4.2-4.3
				c0.2-1,0.3-2,0.6-2.9c0.3-1.1,1.1-1.7,2.2-1.7c1.1,0,1.9,0.6,2.3,1.6c0.4,0.9,0.6,1.9,0.4,2.9c-0.1,0.6,0,1,0.7,1.1
				c0.8,0.1,1-0.4,1-1.1c0.1-1.6-0.2-3.2-1.1-4.5c-0.9-1.4-2.2-2.1-3.8-2c-1.7,0.2-2.9,1.1-3.5,2.8c-0.3,1-0.5,2-0.7,3.1
				c-0.3,1.7-1,2.9-2.9,3c-1.4,0.1-2.6-1.3-2.8-3.3c-0.1-0.5-0.1-0.9-0.1-1.6c-0.3-0.4,0.9-1.7-0.7-1.7c-1.3,0-1,1.2-1,1.9
				c-0.1,1.1,0.2,2.1,0.5,3.1C16.1,125.3,17.7,126.6,19.8,126.5z M145.1,174.9c-2.9,2.4-6,2.7-8.3,0.6c-2-1.8-3.1-4.2-2.6-6.9
				c0.5-2.6,2.5-3.9,4.9-4.6c0.2-0.1,0.4-0.1,0.6-0.1c0.6-0.1,0.8-0.4,0.6-1c-0.2-0.6-0.3-0.9-1.1-0.8c-3.8,0.5-7.2,4.3-7.1,8.8
				c0.3,2.8,1.7,5.7,5,7.2c3.5,1.6,6.4,0.1,9.1-2c0.5-0.4,1.3-0.9,0.5-1.7C145.8,173.5,145.5,174.5,145.1,174.9z M47.9,157.1
				c-0.9-1.9-2.5-2.7-4.8-2.5c0.7-0.9,1.2-1.5,0.2-2.2c-1-0.7-1.1,0.3-1.5,0.7c-2,2-4,4-6,6c-0.5,0.5-1,0.9-0.2,1.7
				c0.8,0.8,1.2,0.3,1.7-0.3c1.3-1.3,2.5-2.6,3.8-3.8c1.4-1.3,3.1-1.4,4.3-0.2c1.1,1.1,1.1,2.5-0.3,4c-1.3,1.4-2.7,2.7-4.1,4.1
				c-0.5,0.5-0.8,0.8-0.1,1.4c0.6,0.5,1,0.8,1.6,0.1c1.3-1.4,2.7-2.7,4.1-4.1C47.8,160.7,48.8,159.1,47.9,157.1z M117.1,181.1
				c-0.3-2.3-2-4.3-4-4.6c-2.5-0.3-4.8,1-5.5,3.5c-0.8,2.5-0.5,4.9,1.4,6.8c2,2,4.5,1.6,6.9,0.8c0.6-0.2,1.6-0.2,1.2-1.3
				c-0.4-1.2-1.2-0.3-1.7-0.1c-3.3,1.1-5.2,0.2-5.9-2.9c2.2-0.3,4.4-0.7,6.6-1C116.6,182.2,117.2,182.1,117.1,181.1z M30.9,134.4
				c0-1.7-0.7-2.1-2.2-2c-2.4,0.1-4.9,0-7.3,0c1.9-1.7,3.9-3.5,6-5.3c1-0.8,0.4-1.7,0-2.2c-0.6-0.8-1,0.3-1.3,0.6
				c-2,1.8-4,3.7-6,5.5c-1.8,1.7-3,1.8-5.1,0.4c-0.3-0.2-0.6-0.5-0.9-0.7c-0.7-0.6-1.1,0-1.5,0.4c-0.6,0.5,0,0.8,0.3,1.1
				c1.1,1.1,2.5,1.7,4.1,1.9C21.7,134.7,26.3,134.3,30.9,134.4z M72,172.6c-0.5,0.2-1.4-0.4-1.4,0.7c-0.1,1.2,0.9,0.7,1.4,0.7
				c1.1,0.2,2.2,0.2,3,1.3c0.5,0.7,0.5,1.4,0.2,2.1c-0.4,0.8-1,0.1-1.5,0.1c-0.9-0.1-1.7-0.4-2.5-0.3c-2.5,0-4.4,1.9-4.1,4.1
				c0.3,2,2.5,3.4,4.9,2.8c0.8-0.2,1.4-0.6,1.2,0.7c0,0.1,0.7,0.5,1.2,0.5c0.7,0.1,0.6-0.5,0.7-0.9c0.6-1.7,1.2-3.4,1.8-5
				C78.2,175.2,76.3,172.6,72,172.6z M178.6,137.8c-0.5-0.2-0.7,0-0.8,0.5c-0.1,0.6-0.3,1.2-0.5,1.7c-0.9,2.1-2.2,3-4,2.8
				c-1.2-0.1-1.7-0.5-1-1.7c0.9-1.6,1.7-3.3,2.6-4.9c0.3-0.6,0.5-1.1-0.3-1.4c-1.6-0.8-3.3-1.2-4.9-0.3c-1.7,0.8-2.5,2.3-2.6,4.2
				c-0.1,3.1,3,6.2,6.4,6.2c2.8,0,6-3.4,5.8-6.2C179.3,138,179,137.9,178.6,137.8z M160.9,163.2c-0.6-0.5-0.9-0.1-1.2,0.4
				c-0.6,0.8-1.2,1.6-2.1,2.1c-1.2,0.8-2.5,0.9-3.7,0.1c-0.9-0.5-1.3-1-0.2-1.8c1.5-1.1,2.8-2.5,4.1-3.7c0.5-0.5,0.9-0.8,0.3-1.6
				c-1.3-1.5-3.6-2.4-5.3-1.8c-2.1,0.7-3.5,2.6-3.5,4.8c0,2.7,2.4,5.8,5.1,6.4c2.3,0.5,5.5-1.3,6.7-3.7
				C161.2,163.9,161.4,163.6,160.9,163.2z M183.2,125.4c-1.7-0.6-3.5-1.2-5.2-1.8c-1.9-0.6-3.7-0.7-5.1,0.9
				c-1.3,1.6-1.3,3.4-0.1,5.5c-1.1-0.3-1.8-0.6-2,0.6c-0.2,1.1,0.7,0.9,1.2,1.1c2.7,1,5.5,1.9,8.2,2.8c0.7,0.3,1.1,0.3,1.5-0.6
				c0.3-0.9,0-1.1-0.7-1.4c-1.8-0.6-3.5-1.1-5.2-1.8c-1.9-0.7-2.7-2.2-2.1-3.9c0.5-1.5,1.8-2,3.8-1.3c1.8,0.5,3.5,1.1,5.2,1.8
				c0.9,0.4,1.2,0.1,1.6-0.7C184.5,125.6,183.7,125.6,183.2,125.4z M37.1,145c-0.6-0.3-1-0.4-1.3,0.2c-0.4,0.7,0.2,0.8,0.5,1
				c0.9,0.6,1.8,1.4,2.1,2.5c0.3,0.9-0.1,1.8-0.9,2.3c-0.9,0.6-1-0.5-1.5-0.9c-0.7-0.5-1.3-1.2-2-1.6c-2.1-1.3-4.5-0.8-5.4,1.2
				c-0.9,1.8,0.2,4.1,2.3,5c0.4,0.2,1.6-0.1,1.1,0.8c-0.7,1.2,0.4,1.3,0.6,1.9c1.8-1.4,3.6-2.7,5.4-4.1
				C41.2,150.8,40.7,146.8,37.1,145z M152.8,47.4c3.4-3.5,6.8-7.1,10.2-10.5c0.8-0.8,0.5-1.2-0.2-1.9c-0.6-0.7-1-0.7-1.7,0
				c-3.6,3.8-7.3,7.6-11.2,11.6C151.1,46.6,151.2,49.1,152.8,47.4z M110.9,27.5c1.1,0.4,1.2-0.4,1.3-1.1c0.7-4.7,1.3-9.4,2-14.1
				c0.2-1-0.1-1.5-1.2-1.7c-1.1-0.2-1.3,0.3-1.5,1.2c-0.7,4.7-1.3,9.4-2,14.1C109.4,27,109.5,27.8,110.9,27.5z M52.9,42.9
				c0.3,0.3,0.5,0.9,1.1,0.4c0.5-0.4,1-0.8,1.5-1.3c-0.2-0.3-0.4-0.5-0.5-0.7c-3.2-4-6.4-7.9-9.5-11.9c-0.7-0.8-1.1-0.3-1.6,0.1
				c-0.6,0.4-1.2,0.7-0.4,1.7C46.6,35,49.8,39,52.9,42.9z M189.8,89c0-1.1-0.6-1.1-1.4-1c-4.8,0.6-9.6,1.2-14.3,1.7
				c-0.9,0.1-1.5,0.3-1.3,1.4c0.2,0.9,0.4,1.6,1.3,1.2c5-0.6,9.8-1.2,14.7-1.7C190.1,90.5,189.9,89.8,189.8,89z M165.8,154.4
				c-1.4-1.1-2.9-0.6-4.3,0c-0.2,0.1-0.5,0.2-0.7,0.4c-0.9,0.4-1.8,0.8-2.5-0.3c-0.7-1.1,0.1-1.8,0.8-2.6c0.2-0.2,0.5-0.4,0.8-0.6
				c0.5-0.2,0.7-0.5,0.4-1.1c-0.3-0.5-0.6-0.7-1.1-0.4c-1.5,0.9-2.7,2.1-2.8,3.6c0,2.6,1.8,4,3.9,3.4c0.9-0.2,1.7-0.7,2.5-1.1
				c0.8-0.3,1.6-0.3,2.1,0.4c0.6,0.8,0.4,1.6-0.2,2.4c-0.5,0.6-1.1,1.1-1.9,1.4c-0.4,0.2-0.7,0.4-0.3,0.9c0.2,0.4,0.4,0.9,1,0.6
				c1.7-0.8,2.9-2.1,3.4-3.9C167.4,156.3,166.9,155.2,165.8,154.4z M185.4,117.3c-0.6-0.1-0.8,0.1-0.9,0.7c-0.2,1.1-0.8,1.6-1.9,1.5
				c-1.7-0.4-3.5-0.7-5.2-1c-1.1-0.2-1.4-0.7-1.1-1.7c0.1-0.6,0.8-1.5-0.5-1.7c-1.3-0.2-1,0.9-1,1.5c-0.1,1.3-0.7,1.3-1.7,1
				c-0.5-0.1-1.5-0.8-1.7,0.4c-0.2,1,0.3,1.6,1.4,1.6c0.7,0.1,1.5,0.3,1.1,1.4c-0.2,0.5,0.2,0.7,0.6,0.8c0.4,0.1,0.8,0,0.9-0.5
				c0.1-1.3,0.9-0.9,1.7-0.8c1.9,0.4,3.7,0.8,5.6,1.1c2.1,0.3,3.6-1.2,3.5-3.3C186.2,117.6,186,117.4,185.4,117.3z M173.5,147.3
				c-1.2-0.4-0.9,0.7-1.1,1.1c-1.4,3-4.3,3.6-6.8,1.4c-2.1-1.8-2-4.1,0.2-6.4c0.4-0.4,1-0.6,0.3-1.4c-0.7-0.8-1-0.2-1.4,0.2
				c-2,1.7-2.9,4.6-2,6.8c0.9,2.4,3.3,4.1,5.8,4.1c2.4,0,4.5-1.5,5.5-4.1C174.1,148.5,174.7,147.7,173.5,147.3z M24.4,69.3
				c2.5,0.9,4.9,2,7.3,3c0.8,0.3,1.5,0.6,1.3,1.7c-0.5,0.8,0,1.2,0.7,1.4c1,0.3,0.9-0.5,1.1-1c0.9-2.1,0.4-3.4-1.7-4.3
				c-2.5-1.1-5.1-2.1-7.7-3.2c-1-0.4-1.4-0.3-1.7,0.7C23.4,68.4,23.3,68.9,24.4,69.3z M32.2,139.9c0.6,1,1.1,0.3,1.6,0
				c0.7-0.4,0.2-0.9-0.1-1.3c-0.7-0.9-1.7-1.1-2.9-1.6c0.2-0.1,0.4-0.2,0.5-0.2c0.8-0.3,0.9-0.7,0.5-1.5c-0.5-0.9-1-0.2-1.4,0
				c-2.6,1.4-5.3,2.8-7.9,4.1c-0.7,0.4-1,0.6-0.6,1.5c0.5,0.9,0.9,0.7,1.6,0.3c1.5-0.8,3-1.6,4.6-2.3
				C29.6,138.3,31.2,138.2,32.2,139.9z M147.5,167.8c-1-1.5-1.4-3.1,0.2-4.4c0.8-0.7,0.2-1.2-0.2-1.6c-0.6-0.7-0.9,0-1.3,0.3
				c-0.7,0.8-0.9,1.7-0.8,3.4c-0.8-1-1.2-2.1-2.2-1.1c-0.9,0.9,0.2,1.3,0.5,1.7c1.6,2.3,3.3,4.6,4.9,6.9c0.4,0.6,0.8,0.9,1.5,0.4
				c0.8-0.5,0.6-1,0.2-1.6C149.4,170.5,148.4,169.2,147.5,167.8z M68.8,173c1,0.4,1.2-0.3,1.3-0.9c0.3-0.9-0.5-0.9-1-1
				c-1-0.2-1.8,0.1-2.9,0.8c0.1-1,1-1.9-0.4-2.3c-1.2-0.3-1,0.8-1.3,1.3c-1.3,2.5-2.4,5.1-3.7,7.7c-0.4,0.7-0.4,1.1,0.4,1.5
				c0.9,0.4,1.1,0.1,1.4-0.6c0.7-1.6,1.4-3.1,2.3-4.6C65.7,173.3,66.9,172.2,68.8,173z M35.2,141.5c-0.4-0.5-0.6-1-1.4-0.5
				c-2.7,1.7-5.5,3.4-8.2,5.1c-0.2,0.2-0.6,0.3-0.5,0.7c0.4,0.7,0.6,1.7,1.8,0.9c2.6-1.7,5.3-3.3,7.9-4.8
				C35.6,142.5,35.7,142.1,35.2,141.5z M69.7,35c-0.8,0.2-1.9,0.3-2,1.3c-0.1,0.5,0.2,1.5,1,1.4c0.8-0.1,1.7-0.5,2.4-1.3
				C70.4,36.1,70.6,34.9,69.7,35z M82.3,30.4c-0.7,0.3-2.1-0.3-1.9,1.2c0.1,0.5-0.1,1.5,1.1,1.3c0.5-0.6,2,0.2,1.8-1.3
				C83.3,31.1,83.3,30,82.3,30.4z M33.4,80.4c0.3-1.1-0.8-0.9-1.3-0.9c-1.5-0.1-1,1.3-1.2,2c-0.3,1,0.7,0.8,1.4,1
				C33.5,82.3,33.2,81.1,33.4,80.4z M30.1,84.9c-0.5,1.4,0.4,1.4,1.1,1.5c1.4,0.2,0.9-1.1,1.2-1.8c0.5-1.1-0.6-1.1-1.2-1.2
				C29.8,83.2,30.4,84.5,30.1,84.9z M66.1,36.8c-0.8,0.2-1.9,0.3-2.1,1.4c-0.1,0.5,0.3,1.2,1,1.5c0.8-0.5,1.9-0.5,2.2-1.4
				C67.3,37.9,66.9,36.6,66.1,36.8z M36.6,139.7c-0.1,0.9,0.5,1.4,1.3,1.4c0.7,0,1.2-0.5,1.3-1.3c-0.1-0.7-0.5-1.2-1.3-1.3
				C37.2,138.5,36.7,138.9,36.6,139.7z"/>
		</g>
	</g>
	<path class="st0" d="M100.7,32.7c-37.3-0.1-67.5,29.7-67.6,66.9C33,136.8,62.9,167,99.8,167.1c37.4,0.1,67.6-29.8,67.6-67.1
		C167.6,63.1,137.5,32.9,100.7,32.7z M99.9,163.5c-35-0.1-63.3-28.7-63.2-63.8c0.1-35.1,28.7-63.5,63.9-63.3
		c34.9,0.1,63.3,28.7,63.3,63.6C163.8,135.2,135.2,163.6,99.9,163.5z"/>
	<path class="st2" d="M174.8,72c0.1,0.9-0.4,1.2-1,1.3c-0.9,0.2-1.7,1.1-2.7,0.5c-0.2-0.1-0.3-0.5-0.3-0.7c0-0.8,0.5-1.2,1.1-1.4
		c0.8-0.2,1.7-1,2.6-0.3C174.6,71.6,174.7,71.9,174.8,72z"/>
	<path class="st3" d="M34.8,62.6c0,1.3-1.3,2.1-2.4,1.6c-0.8-0.4-1.5-0.8-2.3-1.2c-1-0.6-1.1-1.3-0.6-2.3c0.6-1.3,1.3-0.4,1.9-0.1
		c0.9,0.4,1.8,0.9,2.6,1.4C34.4,62.1,34.9,62.2,34.8,62.6z"/>
	<path class="st4" d="M129.4,25.3c-0.5,1.4-0.9,2.8-1.5,4.2c-0.3,0.6-0.8,0.1-1.2,0c-0.7-0.2-1.3-0.5-1-1.4c0.4-1.2,0.9-2.5,1.3-3.7
		c0.2-0.6,0.6-0.6,1.1-0.4C128.8,24.2,129.5,24.3,129.4,25.3z"/>
	<path class="st5" d="M97.9,177.8c0.1-1.5-0.7-3.3,1.9-3.2c2.3,0.2,3.7,1.1,3.7,3c0,2-1.4,2.9-4,3C96.7,180.8,98.4,178.7,97.9,177.8
		z"/>
	<path class="st6" d="M123.1,175.8c2.5,0,3.3,1.9,3.8,5.2c0.3,1.7-1.2,3.2-2.9,3.3c-2.1,0.1-3.8-2-3.9-4.8
		C120,177.3,121.2,175.8,123.1,175.8z"/>
	<path class="st6" d="M87.8,181.9c0,0.9-0.4,2-1.1,2.9c-0.9,1.2-2.1,1.6-3.5,1.1c-1.5-0.5-2.3-1.6-2.2-3.1c0-0.7,0.2-1.4,0.4-2.1
		c0.5-2.1,1.8-3.2,3.7-3C86.8,177.9,87.8,179.3,87.8,181.9z"/>
	<path class="st7" d="M60,163.5c-0.7,2.6-1.2,4.8-1.8,7.1c-0.2,0-0.3,0-0.4,0c-3.8-2.1-3.8-2.1-0.5-4.8
		C58.1,165.1,58.9,164.4,60,163.5z"/>
	<path class="st8" d="M112,178.1c0.8-0.1,1.4,0.1,1.9,0.6c0.5,0.5,1,1.2,0.9,1.9c-0.1,0.8-1.1,0.5-1.6,0.7c-0.6,0.2-1.3,0.2-1.9,0.3
		c-0.7,0.1-1.8,0.7-2.1-0.1c-0.4-0.9,0.2-1.9,0.9-2.6C110.6,178.3,111.3,178.1,112,178.1z"/>
	<path class="st7" d="M72.1,178.6c0.6,0.4,2.2-0.3,2.3,1.2c0.1,1.6-1.6,3-3.1,2.9c-1.2-0.1-2.3-0.6-2.1-2
		C69.3,179.1,70.4,178.4,72.1,178.6z"/>
	<path class="st7" d="M168.5,138.6c0.2-1.3,0.7-2.3,2-2.7c0.8-0.3,1.7-0.2,2.3,0.3c0.6,0.6-0.3,1.1-0.5,1.7
		c-0.2,0.6-0.5,1.2-0.9,1.8c-0.4,0.6-0.5,1.9-1.3,1.7C169,140.9,168.6,139.7,168.5,138.6z"/>
	<path class="st4" d="M150.9,161.4c0.2-1.7,1-2.7,2.6-3c1-0.2,1.9,0.2,2.4,1c0.5,0.9-0.6,1.1-1,1.6c-0.5,0.5-1,1-1.6,1.4
		c-0.5,0.4-0.8,1.3-1.5,1C150.9,163.1,151,162.1,150.9,161.4z"/>
	<path class="st3" d="M32.4,149.6c-1.2,0-2,0.7-2.2,1.9c-0.2,1.2,1.3,2.4,2.9,2.5c1-0.1,2-0.7,2.6-1.7
		C36.1,151.6,33.4,149.5,32.4,149.6z"/>
	<path class="st9" d="M137.2,58.6c-6.4-2.6-13.1-4.2-20.1-4c-19.4,0.3-36.9,13.4-42.8,31.9c-3.2,10.2-3.2,20.4,0.8,30.3
		c6.6,16.6,18.9,26.5,36.6,29.3c9.6,1.5,18.7-0.2,27.3-4.6c0.2-0.1,0.5-0.2,0.9,0c-0.9,0.8-1.8,1.6-2.7,2.4c-1,0.8-2,1.6-3,2.3
		c-1,0.7-2,1.5-3.1,2.1c-18.6,10.7-37.7,11.7-56.5,1.3c-19.7-11-29.5-28.4-28.9-51c0.6-25.1,17.8-46.4,42.3-52.3
		c18.5-4.5,35.4-0.5,50.1,11.8C138.2,58.8,137.8,58.8,137.2,58.6z"/>
	<path class="st10" d="M137.2,58.6c0.4-0.1,0.8-0.2,1-0.6c0.7,0.6,1.5,1.2,2.6,2.1C139.2,59.9,138.2,59.3,137.2,58.6z"/>
</g>
</svg>
