<?xml version="1.0" encoding="utf-8"?>
<!-- Generator: Adobe Illustrator 21.0.0, SVG Export Plug-In . SVG Version: 6.00 Build 0)  -->
<svg version="1.1" id="Layer_1" xmlns="http://www.w3.org/2000/svg" xmlns:xlink="http://www.w3.org/1999/xlink" x="0px" y="0px"
	 viewBox="0 0 311.6 200" style="enable-background:new 0 0 311.6 200;" xml:space="preserve">
<style type="text/css">
	.st0{fill:#1A171B;}
	.st1{fill:#FFFFFF;}
</style>
<g>
	<path class="st0" d="M279.3,135.4c-2.3-2.2-4.9-5.2-7.7-2.8c-2.6,2.3-4.4,2.5-7.6,1.6c-3.3-0.9-4.5,2.4-4.9,5.3
		c-6.2-1.9-8.3-0.4-8.4,6.2c-2-0.5-4.1-0.8-5.7,0.9c-1.6,1.7-1.8,3.7-1.1,5.8c0.3,1,0,1.2-1.1,1.5c-4.3,1.2-5.4,3.9-3.7,8.2
		c0.3,0.7,1.7,1.4,0,2.5c-4.1,2.9-4.4,6.1-1.1,9.8c1,1.1,1.8,1.8,0.4,3.3c-1.4,1.5-1.3,3.6-0.4,5.3c1,1.9,0.7,2.6-1.4,3.3
		c-11.8,4.5-24,7.8-36.4,10.1c-18.2,3.3-36.5,4.5-55,3.5c-37.5-2.1-72.8-11.1-104-33.1c-16.1-11.4-29.2-25.6-35.6-44.6
		C-2.6,97.4,3.4,75,19.6,55.1c16.3-20,37.8-32.3,61.7-40.8C112.7,3,145.2-0.3,178.3,2.5c28.4,2.4,55.5,9.5,80.7,23.3
		c16.7,9.1,31.4,20.7,41.7,36.9c16,25.1,16.1,50.4,0.6,75.8c-1.1,1.8-1.7,2.4-3.3,0.4c-1.4-1.6-3.6-2.6-5.6-1.4
		c-1.9,1.2-2.2,0.1-2.9-1.2C286.7,131.9,283,131.5,279.3,135.4z"/>
	<g>
		<g>
			<path class="st1" d="M84.4,53.9c-6.7-1.8-13.1-0.9-18.9,3.1c-6,4.2-7.3,11.5-3.5,17.8c1.6,2.7,3.8,4.9,6,7.2
				c2.8,3,5.6,6.1,7.3,10c2.4,5.5,1.3,11.9-2.8,15.3c-3.1,2.6-6.7,3.1-10.4,1.4c-3-1.4-4.4-4-4.4-7.3c0.1-4,2.5-6.5,7.8-7.4
				c2.1-0.4,1.9-1,1.2-2.4c-1.6-3.1-5.8-4-9.8-2c-5,2.6-7.2,6.9-7.2,12.5c0,5.8,2.8,9.6,7.9,11.9c2.8,1.2,5.8,1.7,8.8,1.5
				c8-0.2,15-2.7,18.4-10.5c3.5-8.1,2.7-16-2.9-23.2c-2.5-3.1-5.8-5.3-8.6-8c-3.1-3-5.4-6.4-4.7-11c0.6-3.7,3-5.6,6.4-6.4
				c3.2-0.7,6.6-1.1,8.8,2.1c2,2.9,1.1,5.9-0.5,8.8c-0.5,0.9-2.3,1.3-1.4,2.8c1,1.5,2.7,1.1,4.2,0.9c1.7-0.3,2.8-1.5,3.7-3
				C93.1,62.6,90.6,55.7,84.4,53.9z M124.9,144.7c0.6-0.7,0.8-1,1.1-1.3c7-7.6,4.3-17.9-5.5-20.9c-8.6-2.5-16.5-0.8-23.5,4.6
				c-3.8,3-6.1,7-5.9,12c0.2,4.9,2.8,7.3,8,7.5c-0.1-0.3-0.2-0.6-0.3-0.9c-2.7-5.8-2.6-11.6,1.5-16.7c4.1-5,9.8-6.3,16-5.1
				c5,1,7.7,4.3,7.9,9.1c0.1,5.1-3.3,10.1-7.5,11.4c-2.1,0.6-2.9,0.1-2.8-2.2c0.2-3.8,0.1-7.6,0-11.5c0-0.6,0.3-1.8-0.4-1.8
				c-2.1,0-4.2,0.3-6.1,0.8c-1.7,0.4-1,2.1-1,3.3c0,12.9,0.1,25.7-0.1,38.6c-0.1,3.7,2.2,2.7,4.1,2.7c1.8,0,3.9,0.8,3.7-2.6
				c-0.3-7.4-0.1-14.8,0-22.2c0-0.9-0.7-2.1,0.8-2.6c4.4-1.5,10.7,1.1,12.2,5.5c1.7,4.6,1.6,9.4,0.1,14c-1.2,3.7-4.4,4.7-7.8,2.9
				c-0.8-0.4-1.2-1.4-2.3-1.2c-0.4,3,0.4,5.3,3.2,6.7c3.8,1.8,7.6,1.7,10.7-1c5.7-5,6.2-11.7,5.2-18.5
				C135.2,149.3,131.2,145.9,124.9,144.7z M250.9,102.6c-2,0.4-3.9,1.2-3,3.9c0.7,2-0.8,2.2-2,2.3c-3.3,0.2-6.6-0.1-10-0.8
				l19.8-34.5c-1.8-1-3.4-1.3-5-1.3c-6-0.2-10.5-0.6-17.7,1.1c-5.6,2.2-6.9,4.1-5.8,8.4c0.6,2.3,2.2,2.9,4.2,2.5
				c2-0.4,3.7-1.2,2.9-3.7c-0.5-1.7,0-2.5,1.7-2.5c2.7-0.1,5.5-0.5,8.5,0.1c-6.3,11-12.5,21.8-18.6,32.7c-0.6,1.1-1.7,2-1.4,3.4
				c0.5,0.6,1.1,0.7,1.8,0.7c6.6,0,13.1,0,19.7,0c0.8,0,1.6,0,2.1-0.9c1.4-0.8,2.9-1.4,4.2-2.3c2-1.5,3.6-3.3,3.2-6.1
				C255,103.1,253.2,102.2,250.9,102.6z M105.4,114.9c8.5,0.2,17.6-6,21.5-15c-1.9-0.9-2.9,0.1-3.9,1.6c-3.4,4.6-8,6.9-13.8,6.6
				c-3.4-0.2-5.6-1.8-5.9-5.2c-0.8-8.7,1.3-16.5,6.9-23.3c0.5-0.6,1.2-1.1,1.9-1.5c1.9-1,4-1.6,5.8,0c1.8,1.6,0.9,3.6,0.2,5.5
				c-0.4,1.1-2.6,2.2-0.3,3.3c1.5,0.8,3.3,0.6,4.4-1c1.9-2.8,2.1-5.9,1-9c-1-2.9-3.4-3.9-6.2-4.2c-4.7-0.4-9.1,0.5-12.6,3.8
				c-8.5,8.1-11.4,18.3-9.7,29.7C95.4,111.7,100,114.8,105.4,114.9z M217.5,101.8c0.3-1.9,0.7-3.9,1.1-5.8
				c2.6-11.9,5.2-23.7,7.7-35.6c0.2-0.8,1.2-2.5-0.1-2.6c-2.4-0.2-4.9,0.3-7.2,0.9c-1.4,0.4-1.1,2.1-1.4,3.3
				c-2.1,9.7-4.3,19.4-6.2,29.2c-1.1,5.6-3.2,11.2-2.3,17.1c0.6,4.3,3.3,6.8,7,6.8c3.6,0,5.4-1.9,6.2-6.5
				C217.1,107.8,216.7,107.3,217.5,101.8z M154.4,139.1c-2.7,0.9-4.2,3.1-6.4,5.8c0-1.5-0.1-2.2,0-2.9c0.6-3-1-3.3-3.5-3.3
				c-2.5,0-3.7,0.3-3.6,3.3c0.2,9.8,0.2,19.7,0,29.5c-0.1,2.9,1.3,2.9,3.4,2.8c1.8-0.1,3.9,0.8,3.8-2.7c-0.3-7.2,0-14.4-0.1-21.5
				c-0.1-2.8,1.9-3.7,3.7-4.9c1.5-1,3.1-0.8,4.4,0.5c0.9,0.9,1.8,1.4,3,0.6c1.3-0.8,2-1.9,1.9-3.5C161,139.8,157.8,138,154.4,139.1z
				 M102,31.7c1.6,0.3,3.6,0.4,3.4,2.6c-0.2,1.9-2.1,1.8-3.5,2.1c-0.8,0.2-2.2-0.5-2.2,1c0,1.6,1.4,1.2,2.3,1.2c3.3,0,5.8-1.7,6-4.1
				c0.3-3-1.1-4.4-5.1-5.2c-0.6-0.1-1.1-0.3-1.7-0.4c-1-0.2-1.8-0.6-1.9-1.7c-0.1-1.2,0.8-1.6,1.7-1.9c0.8-0.3,1.6-0.4,2.4-0.6
				c0.5-0.1,0.9-0.3,0.8-0.9c-0.1-0.6-0.3-1.2-1-1.2c-2.3,0-4.5,0.5-5.9,2.4c-1.2,1.6-0.8,3.3,0.2,4.9
				C98.7,31.5,100.4,31.4,102,31.7z M140.5,19.1c2,0.2,1.6,1.6,1.6,2.8c0.1,2.2,0.1,4.4,0.3,6.6c0.3,2.6,1.8,3.9,4.7,3.7
				c0.8-0.1,2.1,0.4,2.3-1.1c0.1-0.7-0.1-1.4-1.1-1.2c-3.3,0.8-3.3-1.4-3.4-3.6c0-1.3,0-2.6-0.2-3.8c-0.3-2-0.6-3.8,2.5-3.4
				c0.7,0.1,1.4-0.1,1.4-1.1c-0.1-0.9-0.8-1.1-1.5-1c-2.2,0.3-3-0.5-2.7-2.7c0.1-0.5-0.2-1-0.7-1c-2.8-0.1-0.6,4.3-3.7,4.3
				C139.6,17.5,139.7,19,140.5,19.1z M215.9,38.6c1.9-2.3,3.9-4.5,5.9-6.8c6.9-8.1,3.8-8.4-3.8-9.9c-0.8-0.2-1.6-0.6-1.9,0.6
				c-0.3,1.1,0.5,1.4,1.3,1.6c1.9,0.6,3.8,1.3,6.1,2.1c-4,4.5-7.6,8.6-11.3,12.7C213.6,40.4,214.7,40,215.9,38.6z M168.9,16.5
				c-0.3,4-0.6,8.3-0.8,12.5c-0.1,1.1-0.6,2.5,1.1,2.8c2,0.3,1.3-1.5,1.4-2.4c0.4-4.4,0.5-8.8,1-13.1c0.4-3.2-1-3.4-3.3-2.4
				c-1.3,0.6-4,0.2-3.6,2.3C165.3,18.5,167.3,15.7,168.9,16.5z M131.6,18.3c-1.5,0.1-1.1,1.2-1,2c0.3,3.4,0.6,6.9,1.1,10.3
				c0.1,0.9-0.6,2.6,1.3,2.6c2.3-0.1,0.9-1.8,1.2-2.8c-0.3-3.4-0.7-6.9-1-10.3C133.1,19.2,133,18.2,131.6,18.3z M203.9,103.3
				c-0.7,1.5-2,2.7-3,4.1c-4.1,1.5-5.3,0.7-5.1-3.7c0-1,0.2-2.1,0.4-3.1c1.6-7.5,3.2-14.9,4.7-22.4c1-4.8,1-4.6-4-4.8
				c-2.6-0.1-3.5,0.6-4,3.3c-1.3,7.4-3.1,14.7-4.7,22.1c-0.5,2.3-1.1,4.5-2.7,6.3c-1.8,2.1-4,4-6.9,2.7c-2.9-1.3-2.4-4.1-1.8-6.7
				c1.8-8.5,3.6-17,5.4-25.4c0.1-0.6,0.7-1.8,0.1-1.9c-2.3-0.3-4.6-0.3-6.9-0.3c-1.7,0-1.4,1.6-1.7,2.6c-1.5,6.9-2.9,13.8-4.4,20.7
				c-0.2,1,0.1,2.8-1.3,2.8c-2.3,0-2.5,1.7-3.3,3c-0.9,1.5-1.8,3-3.1,4.1c-1.1,0.9-2.3,1.8-3.7,1.2c-1.6-0.6-1.5-2.1-1.6-3.5
				c-0.1-4.2,1.3-8.2,2.3-12.3c1-4.3,2.2-8.6,1.4-13c-0.7-4-3.3-6.1-7.4-6.5c-4.7-0.4-8,2.2-11.6,6.1c1.5-6.8,2.8-12.6,4-18.3
				c0.2-0.9,1-2.1-0.2-2.8c-2.2-1.2-7.9,1.6-8.5,4.1c-1.3,6.1-2.6,12.2-3.9,18.3c-2.4,11.3-4.8,22.6-7.3,34.2c1.7,0,3.1-0.2,4.4,0
				c3.3,0.6,4.3-0.9,4.8-4c1.2-6.9,2.8-13.8,4.4-20.7c0.8-3.6,2.6-6.7,5.7-8.9c1.6-1.1,3.4-1.8,5.2-0.8c1.9,1,2,3,1.9,4.9
				c-0.1,1.7-0.5,3.4-0.9,5.1c-1,4.7-2.5,9.4-3,14.2c-0.8,7.3,3.1,11.7,9.4,10.8c2.6-0.4,4.6-1.9,6.4-3.8c1.9-2.1,3.1-4.7,4.8-7.4
				c0.5,5,1.7,9.3,6.7,10.8c6,1.8,9.8-1.9,13.1-6.3c3.2,7.8,9.6,8.9,15,2.7c1.8-2.1,3.5-4.3,4.2-7.1c0.8-1.2,1.6-2.3,1.5-3.9
				C206.2,100.1,204.8,101.3,203.9,103.3z M236.5,41.7c1.3,0,1.6-1,1.9-2.1c-0.1-1-0.8-1.6-1.8-1.7c-1.3-0.1-1.9,0.8-2,1.9
				C234.4,41.1,235.4,41.7,236.5,41.7z M131.3,16.1c1.1-0.2,1.6-0.8,1.5-1.9c0-1.1-0.5-1.8-1.6-1.8c-1.2,0.1-2,0.7-1.7,2
				C129.7,15.4,130.1,16.2,131.3,16.1z M80,40.1c0.9-0.2,1.9-0.4,1.8-1.6c-0.1-1-0.6-2-1.9-2c-1.1,0-1.7,0.6-1.7,1.7
				C78.2,39.3,78.7,40.1,80,40.1z M207.1,170c-4.3,0.6-4.5-2.5-4.5-5.3c-0.1-6.4,0-12.7-0.1-19.1c0-2.8-0.3-5.5,3.9-4.6
				c0.6,0.1,1.5,0.1,1.5-0.9c0.1-0.9-0.5-1.4-1.3-1.2c-5.1,1.1-4.1-2.5-4.1-5.3c0-1,0-2.1,0-3.1c0-0.7,0-1.3-0.9-1.6
				c-3.2-0.8-5.9,1.4-6.2,4.7c-0.2,1.9,1.7,4.8-2,5.6c-0.6,0.1-0.6,1.5,0.1,1.7c3.8,0.9,2,4,1.7,5.6c-0.5,2.8-3.6,2.8-5.9,3.3
				c-2.3,0.5-2.2-1.4-2.6-2.8c-1.2-4.4-3.8-7.4-8.5-8c-4.9-0.7-9.1,0.9-11.7,5.2c-4.7,7.6-5.5,15.7-2.1,23.9c2.1,5,6.3,7.3,11.7,7.1
				c5.2-0.2,8.2-3.4,9.9-7.9c1.3-3.5,1.8-7.2,1.6-10.9c-0.1-1.8,0.3-2.9,2.3-3.5c5.5-1.6,5.4-1.8,5.4,4.1v2.8c0,3.2-0.2,6.5,0.5,9.7
				c1.1,5.3,7,7.7,11,4.4c0.9-0.8,1.5-1.7,1.4-3C208.3,170,207.7,169.9,207.1,170z M182.4,166.6c-1,2.2-2.7,3.4-5.2,3.5
				c-2.5,0.1-4.1-1.2-5.3-3.3c-1.5-2.7-1.7-5.7-1.6-10.3c0.2-3.3,0.5-8,3.8-11.9c2.4-2.8,6.1-2.7,8,0c0.7,1.1,1.4,1.8-0.4,3
				c-2.2,1.4-1.7,4.5,0.8,5.4c1.6,0.6,1.8,1.4,1.7,2.8C184.3,159.5,184,163.1,182.4,166.6z M186.1,32.9c2.8-0.5,3.8-2.7,4.1-5.3
				c0.1-0.9,0-2-0.6-2.6c-1.1-1.2-0.8-1.9,0.1-3.2c1.5-2,1.6-4.4-0.3-6.3c-1.9-1.9-4.4-2.1-6.7-1c-2.4,1.2-3,3.5-2.2,5.9
				c0.4,1.4,0.5,2-0.6,3.1c-2,2-2.3,4.6-0.7,7C180.7,33.1,183.4,33.4,186.1,32.9z M183.2,19.6c0.2-1.7,0.6-3.2,2.8-3.1
				c1.7,0.1,2.8,0.9,2.7,2.5c-0.2,2.1-0.7,3.6-2.8,3.4C184.1,22.3,183,21.6,183.2,19.6z M181.4,27.7c0.2-2.1,1.2-3.4,3.5-3.3
				c2.2,0.1,3.3,1.4,3.2,3.7c-0.1,2.2-1.3,3.5-3.5,3.3C182.5,31.2,181,30.2,181.4,27.7z M201,17.4c-2.6,1.1-3.1,3.5-2.7,6.1
				c0.1,0.8,0.8,1.5-0.5,2.2c-2.6,1.5-3,4.1-2.2,6.6c0.9,2.8,3.4,3.5,5.9,3.7c4.2,0.2,7-3.7,5.4-7.6c-0.5-1.2-0.8-1.8,0.2-2.9
				c1.9-1.9,2.3-4.4,0.5-6.5C205.9,17.1,203.4,16.4,201,17.4z M201.9,34.4c-1.8-0.2-3.6-0.8-3.6-3.2c0-1.9,0.7-3.8,3.1-3.8
				c2.1,0,3.7,0.9,3.7,3.2C205.2,32.4,204.6,34.2,201.9,34.4z M206.5,22.6c-0.4,1.8-0.9,3.4-3.1,2.9c-1.6-0.3-2.9-1.1-2.4-3
				c0.4-1.6,1-3.1,3.2-2.8C206,19.9,206.7,21,206.5,22.6z M113.8,29.7c0.9,5.1,4.5,6.9,9.2,4.5c0.7-0.4,1.5-0.7,1.2-1.8
				c-0.4-1.3-1.1-0.6-1.9-0.4c-0.9,0.3-1.8,0.5-2.7,0.6c-1.8,0.1-2.7-0.8-3.1-2.6c-0.4-2.1,1.2-1.7,2.3-2.1c1.7-0.6,4.4,0.3,4.8-1.7
				c0.4-2-0.2-4.4-2.2-5.9c-1.9-1.4-3.9-1.1-5.9-0.3c-2,0.8-2.6,2.4-2.5,5.2C113.3,26.3,113.5,28,113.8,29.7z M118,21.7
				c1.9-0.2,2.9,1.1,2.9,2.7c0,2.3-2.3,1.1-2.9,1.6c-2,0.7-2.3-0.4-2.3-1.4C115.6,23,116.3,21.8,118,21.7z"/>
		</g>
	</g>
</g>
</svg>
