<?xml version="1.0" encoding="utf-8"?>
<!-- Generator: Adobe Illustrator 21.0.0, SVG Export Plug-In . SVG Version: 6.00 Build 0)  -->
<svg version="1.1" id="Layer_1" xmlns="http://www.w3.org/2000/svg" xmlns:xlink="http://www.w3.org/1999/xlink" x="0px" y="0px"
	 viewBox="0 0 200 200" style="enable-background:new 0 0 200 200;" xml:space="preserve">
<style type="text/css">
	.st0{fill:#009CDF;}
	.st1{fill:#FEFEFE;}
	.st2{fill:#149EDE;}
	.st3{fill:#029CDE;}
	.st4{fill:#1DA3DF;}
	.st5{fill:#1BA2DF;}
	.st6{fill:#18A5E2;}
	.st7{fill:#17A4E3;}
	.st8{fill:#ECF6F8;}
	.st9{fill:#F6F9FA;}
	.st10{fill:#EEF7F8;}
	.st11{fill:#F4F9FA;}
</style>
<g>
	<path class="st0" d="M199.9,100.8c0,32.2,0,64.5,0.1,96.7c0,2-0.4,2.5-2.5,2.5c-64.7-0.1-129.5-0.1-194.2,0c-2.4,0-2.6-0.8-2.6-2.7
		c0-64.6,0.1-129.2,0-193.8c0-2.1,0.5-2.7,2.6-2.7c64.6,0.1,129.2,0.1,193.8,0c2.5,0,2.7,0.7,2.7,2.9
		C199.9,36,199.9,68.4,199.9,100.8z"/>
	<path class="st1" d="M102.4,43.4c14.5,0.1,29-0.2,43.4,2.3c2.8,0.5,5.6,1.3,8.3,2.2c8.8,3,13.7,9.4,15.6,18.2
		c2.8,13.6,2.4,27.5,2.2,41.3c-0.1,7.1-0.2,14.3-1.4,21.4c-2.5,15.4-9.4,22.2-24.8,24.8c-11.4,1.9-22.9,2.1-34.4,2.2
		C95.2,156,79,156.2,63,154.3c-6.5-0.8-13-2.2-18.5-6c-6.8-4.7-9.2-11.9-10.2-19.6c-1.6-12.4-1.6-24.8-1.3-37.2
		c0.2-7.8,0.4-15.6,1.7-23.4c2.1-11.9,9.2-18.9,20.9-21.5c11.3-2.6,22.8-2.6,34.3-3C94.1,43.3,98.2,43.4,102.4,43.4z"/>
	<path class="st0" d="M80.9,130.9c-1.6-2.6-2-5.6-2.9-8.4c-0.5-1.8-1.4-2.8-3.4-2.7c-0.2,0-0.5,0-0.7,0c-5.8-2.1-9.9,0-13.9,4.5
		c-3.6,4.2-6.8,3.8-10.6-0.1c-2.3-2.4-4.2-5.1-6.2-7.8c-0.8-1-1.4-2.3-0.2-3.4c1.2-1.2,2.5-0.7,3.8,0.1c1.5,1,3.1,2,4.7,3
		c1.2,0.7,2.3,1.8,3.6,0.2c1.1-1.5-0.1-2.3-1-3.2c-0.4-0.4-0.8-0.9-1.2-1.2c-2.1-1.6-2.3-3.3-1-5.7c2.9-5.6,5.6-11.3,8.8-17.7
		c-4.1,0.9-7.6,1.6-11,2.3c-1.4,0.3-3.2,1.2-4-0.6c-0.7-1.8,1.2-2.5,2.4-3.3c4.8-2.9,9.7-5.7,14.5-8.6c1.2-0.7,2.2-1,3.5-0.2
		c3.1,1.7,6.2,1.7,9.1-0.4c1.3-0.9,2.3-0.6,3.3,0.5c4.8,5.3,9.6,10.6,14.3,15.9c0.7,0.8,1.6,1.9,0.7,3.1c-1.1,1.4-2.3,0.6-3.4,0
		c-2.3-1.3-4.5-2.7-6.8-4.1c-0.7-0.4-1.3-1.2-2.2-0.8c-1.1,0.6-0.3,1.7-0.2,2.5c2.5,11.3,5,22.7,7.5,34c0.1,0.4,0.1,0.9,0.2,1.4
		c-0.2,1.7,1.9,2.6,1.4,4.4c0,0.2-0.1,0.5,0,0.7c0.3,2.3,0.5,4.9-2.3,5.6c-3.1,0.7-3.8-2-4.7-4.3c-0.3-0.4-0.2-0.9-0.4-1.3
		C82,134.2,80.9,131.5,80.9,130.9z"/>
	<path class="st0" d="M119,125.1c1.8-9.4,3.7-18.7,5.5-28.1c0.3-1.7,0.6-3.3,1-5.8c-3.9,2.4-7,4.4-10.2,6.4c-1.2,0.8-2.6,2-3.9,0.3
		c-1.1-1.5,0.2-2.5,1.1-3.6c4-4.7,8.1-9.4,12.1-14.2c1.5-1.8,2.8-3,3.9,0.3c0.6,1.8,1.6,2.1,2.9,0.5c1.6-2.1,2.9-1.8,4.1,0.5
		c1.2,2.4,2.3,2,3.3-0.2c0.3-0.7,0.8-1.4,1.1-2.1c0.9-2.3,2.2-2.5,4.3-1.2c4.6,2.9,9.2,5.6,13.9,8.5c1.2,0.7,2.5,1.6,1.8,3.3
		c-0.6,1.7-2.2,1.4-3.6,1.2c-2.8-0.5-5.7-1.1-8.5-1.6c-0.7-0.1-1.6-0.8-2.3-0.1c-0.8,0.9,0.1,1.7,0.4,2.5c2.1,5.2,4.3,10.4,6.5,15.6
		c0.9,2.1,0.8,3.7-1.4,4.9c-0.9,0.5-2,1.1-1.2,2.4c0.8,1.2,1.9,1.6,3.3,0.8c1.7-0.9,3.4-1.9,5.2-2.8c1.3-0.6,2.5-0.6,3.4,0.6
		c1,1.2,0.2,2.2-0.5,3.1c-2.2,2.6-4.4,5.3-6.8,7.8c-3.1,3.3-5.6,3.5-9,0.5c-2.7-2.3-5.2-4.9-7.7-7.4c-1.1-1.1-1.9-1.6-2.7,0.2
		c-0.2,0.5-0.7,1.2-1.1,1.3c-6,0.4-5.4,5.5-6.8,9.2c-0.3,1-0.7,1.9-1.1,2.9c-1.2,1,1.2,2.7-0.7,3.6c-0.7,1.7-1.3,3.4-2.6,4.8
		c-1,1.1-2.2,2.1-3.9,1.6c-1.8-0.6-2.3-2-2.4-3.8c0-0.9-0.2-1.8-0.3-2.7C117.6,131.4,118.8,128.4,119,125.1z"/>
	<path class="st2" d="M119,125.1c0.3,3.4-0.4,6.6-2.7,9.3c-3.2,0-6.4,0.2-9.7,0.1c-2.2-0.1-3.2,0.7-2.9,2.9c0.1,0.7,0.1,1.4,0,2.1
		c-0.1,0.8,0.3,2.2-1,2.1c-1.2-0.1-0.8-1.4-0.9-2.3c-0.2-4.8-0.2-4.8-5.1-4.8c-2.2,0-4.4,0-6.6,0c-0.9-1.3-1.8-2.7-1.4-4.4
		c0.4,1.6,1.2,2.3,3.1,2.4c10,0.4,10,0.5,10-9.4c0-9.9,0-19.8,0-29.7c0-2-0.4-3.6-1.9-5.3c-5.1-5.8-5.2-16-0.4-22.1
		c2.3-2.9,3.5-2.9,5.9,0.1c4.7,5.9,4.7,15.9-0.2,21.8c-1.1,1.4-1.6,2.7-1.6,4.4c0,12.3,0.1,24.6,0,36.9c0,2.6,0.8,3.6,3.4,3.2
		c0.5-0.1,0.9,0,1.4,0c2.6,0,5.6,0.6,7.9-0.3C118.9,131,117.5,127.3,119,125.1z"/>
	<path class="st3" d="M60,67.3c0-4.9,2.9-8.6,7.1-9.5c3.9-0.9,8.2,1.3,10,5c0.7,1.5,1.3,3-0.1,4.5c-0.8,0.9-0.6,1.9-0.5,2.9
		c0.1,2.7-1.3,4.7-3.7,5.7c-2.3,1-4.5,0.5-6.3-1.3c-0.6-0.6-1-1.7-2.1-1.7C60.2,72.8,60.4,69.5,60,67.3z"/>
	<path class="st3" d="M139.1,64.9c-0.6,2.8-1.1,6.4-2.1,9.8c-0.7,2.6-5.5,3.4-6.9,1.2c-0.9-1.5-2.2-2.2-3.5-3.1
		c-1.6-1.1-2.5-2.8-2.4-4.7c0.1-2.4,0.5-4.8,0.6-7.2c0.1-2.5,6.3-4.7,9.4-3.4C137.4,58.6,139.1,60.8,139.1,64.9z"/>
	<path class="st4" d="M117,107.5c-0.1,7.1-3.8,11.8-8.8,15.6c-1.4,1-2,0.5-2.4-1c-2-6.3,1.8-15.9,7.7-19.3c2.1-1.2,3-0.5,3.3,1.6
		C116.9,105.6,116.9,106.7,117,107.5z"/>
	<path class="st5" d="M88.2,106.6c0.4-1.6-0.4-4.1,1.4-4.9c2-1,3.5,1.2,4.9,2.5c4.7,4.5,6,10.1,5.3,16.3c-0.2,2.1-1.1,2.8-2.8,1.5
		C91.9,118.2,88.5,113.4,88.2,106.6z"/>
	<path class="st6" d="M80.9,130.9c-0.3,2.3,2.4,3.3,2.1,5.6c-0.9-1.8-2.5-2-4.3-2c-10.8,0.1-21.6,0-32.4,0c-0.9,0-1.8,0-2.8-0.1
		c-0.4,0-0.9-0.1-1-0.7c-0.1-0.7,0.4-1.1,1-1.2c0.9-0.1,1.8-0.1,2.8-0.1c10.5,0,20.9,0,31.4,0C78.9,132.4,80.6,133,80.9,130.9z"/>
	<path class="st7" d="M125.3,134.4c0.5-1.2-0.4-2.6,0.7-3.6c0.3,2.1,2,1.5,3.2,1.5c9.3,0,18.6,0,27.9,0c0.7,0,1.4-0.1,2.1,0
		c1.1,0.1,2.8-0.5,2.9,1c0.1,1.7-1.7,1-2.7,1c-4,0.1-8,0-12.1,0C140,134.5,132.7,134.4,125.3,134.4z"/>
	<path class="st8" d="M101.6,67.3c0,6.6,0,12.7,0,19C97,82.1,96.9,72.6,101.6,67.3z"/>
	<path class="st9" d="M104.1,68c3.7,5.1,3.7,12.4,0,18C104.1,79.8,104.1,74.1,104.1,68z"/>
	<path class="st10" d="M115,108.1c-0.2,4.8-2.2,8.4-5.5,11.3c-0.4,0.4-0.8,0.9-1.4,0.7c-0.6-0.2-0.6-0.9-0.6-1.5
		c0-4.4,0.9-8.5,4.1-11.7c0.8-0.8,1.6-2.2,2.7-1.7C115.7,105.7,114.7,107.3,115,108.1z"/>
	<path class="st11" d="M97.9,116.1c-0.1,1.4,0.6,2.8-0.4,3.2c-1.2,0.5-1.9-0.9-2.6-1.7c-3-3-4.5-6.6-4.6-10.8c0-0.9-0.2-2,0.8-2.5
		c0.8-0.3,1.4,0.6,2,1.1C96.3,108.4,97.8,112.1,97.9,116.1z"/>
</g>
</svg>
